<?xml version="1.0" standalone="no"?>
<!DOCTYPE svg PUBLIC "-//W3C//DTD SVG 20010904//EN"
 "http://www.w3.org/TR/2001/REC-SVG-20010904/DTD/svg10.dtd">
<svg version="1.0" xmlns="http://www.w3.org/2000/svg"
 width="400.000000pt" height="400.000000pt" viewBox="0 0 400.000000 400.000000"
 preserveAspectRatio="xMidYMid meet">
<metadata>
Created by potrace 1.16, written by Peter Selinger 2001-2019
</metadata>
<g transform="translate(0.000000,400.000000) scale(0.100000,-0.100000)"
fill="#000000" stroke="none">
<path d="M1199 3267 c-235 -163 -391 -434 -463 -802 -29 -149 -37 -240 -45
-470 -9 -266 -14 -283 -83 -309 -24 -8 -56 -17 -73 -18 -20 -2 -31 -9 -33 -22
-4 -18 1 -18 105 -10 136 11 200 11 336 0 103 -8 109 -8 105 10 -2 14 -15 21
-49 25 -125 18 -144 61 -133 311 l7 148 379 0 378 0 3 -107 c5 -258 -2 -302
-56 -330 -17 -8 -51 -18 -76 -22 -34 -4 -47 -11 -49 -25 -4 -18 2 -18 105 -10
136 11 200 11 336 0 104 -8 109 -8 105 10 -2 13 -13 20 -33 22 -17 1 -49 10
-73 18 -69 26 -74 44 -83 304 -9 261 -27 409 -70 580 -60 240 -149 415 -283
557 -65 69 -192 175 -207 172 -2 0 -25 -14 -50 -32z m130 -114 c105 -106 173
-246 227 -470 28 -115 64 -346 64 -410 l0 -43 -370 0 -370 0 0 43 c0 65 38
312 65 417 33 134 50 182 102 290 37 76 60 109 118 168 40 39 78 72 85 72 7 0
42 -30 79 -67z"/>
<path d="M2810 2779 c-69 -47 -166 -147 -214 -219 -121 -181 -179 -375 -197
-653 -5 -82 -14 -157 -19 -168 -14 -25 -44 -40 -99 -48 -37 -5 -47 -10 -49
-27 -3 -22 -3 -22 252 -22 243 0 256 1 256 19 0 12 -9 21 -27 24 -67 14 -102
26 -113 40 -20 24 -30 112 -23 188 l6 67 282 0 282 0 6 -72 c6 -82 -3 -159
-23 -182 -11 -15 -46 -27 -112 -41 -19 -3 -28 -12 -28 -24 0 -18 13 -19 256
-19 255 0 255 0 252 22 -2 17 -12 22 -49 27 -56 8 -85 23 -99 50 -7 11 -15 87
-20 168 -20 331 -107 568 -275 749 -55 60 -172 152 -191 152 -5 0 -29 -14 -54
-31z m163 -143 c41 -56 92 -168 117 -257 23 -83 50 -237 50 -286 l0 -33 -279
0 -279 0 5 43 c9 85 44 255 64 318 37 115 80 191 146 257 l63 64 41 -33 c23
-18 55 -51 72 -73z"/>
</g>
</svg>
